<svg id="a" xmlns="http://www.w3.org/2000/svg" viewBox="0 0 1103.6 310.45"><defs><linearGradient id="linear-gradient" x1="228.85" y1="229.86" x2="36.19" y2="37.2" gradientTransform="matrix(1 0 0 -1 0 311.46)" gradientUnits="userSpaceOnUse"><stop offset="0" stop-color="#6cf"/><stop offset="1" stop-color="#007fff"/></linearGradient><style>.cls-5{fill:#fff}</style></defs><path class="cls-5" d="M423.82 108.47h85.03c8.5 0 9.93-1.49 9.93-9.93v-.06c0-8.44-1.43-9.87-9.93-9.87h-84.1V72.84h58.1v-9.93c0-8.44-1.43-9.93-9.93-9.93h-49.09v-15.7h52.82c16.08 0 23.59 7.51 23.59 23.58v11.98h12.35c16.07 0 23.58 7.51 23.58 23.59v4.15c0 16.08-7.51 23.59-23.58 23.59h-88.76v-15.7ZM605.47 37.27v61.26c0 8.44 1.43 9.93 9.93 9.93h81.37v15.7h-85.1c-16.08 0-23.59-7.51-23.59-23.59V37.26h17.39ZM744.13 100.58V37.27h17.38v61.26c0 8.44 1.43 9.93 9.87 9.93h72.18V37.27h17.38v86.89h-93.29c-16.01 0-23.52-7.51-23.52-23.59ZM1034.3 60.86v27.75h-99.5v9.93c0 8.44 1.49 9.93 9.93 9.93h89.56v15.7H941c-16.07 0-23.58-7.51-23.58-23.59V60.86c0-16.07 7.51-23.58 23.58-23.58h69.71c16.01 0 23.58 7.51 23.58 23.58h.01Zm-17.38 11.98v-9.93c0-8.44-1.49-9.93-9.93-9.93h-62.26c-8.44 0-9.93 1.49-9.93 9.93v9.93h82.12ZM569.87 273.19h-17.38v-67.34l-50.84 39.78h-4.22l-73.62-56.92v-2.42h23.46l52.32 40.4 52.33-40.4h17.94v86.89h.01ZM750.14 209.87v39.72c0 16.08-7.51 23.59-23.59 23.59h-76.53c-16.07 0-23.58-7.51-23.58-23.59v-39.72c0-16.07 7.51-23.58 23.58-23.58h76.53c16.08 0 23.59 7.51 23.59 23.58Zm-96.39 47.61h69.08c8.51 0 9.93-1.49 9.93-9.93v-35.63c0-8.44-1.43-9.93-9.93-9.93h-69.08c-8.44 0-9.93 1.49-9.93 9.93v35.63c0 8.44 1.49 9.93 9.93 9.93ZM929.56 209.87v39.72c0 16.08-7.51 23.59-23.59 23.59h-76.53c-16.07 0-23.58-7.51-23.58-23.59v-39.72c0-16.07 7.51-23.58 23.58-23.58h76.53c16.08 0 23.59 7.51 23.59 23.58Zm-96.39 47.61h69.08c8.51 0 9.93-1.49 9.93-9.93v-35.63c0-8.44-1.43-9.93-9.93-9.93h-69.08c-8.44 0-9.93 1.49-9.93 9.93v35.63c0 8.44 1.49 9.93 9.93 9.93ZM1080.08 186.29c16.01 0 23.52 7.51 23.52 23.58v63.31h-17.38v-61.26c0-8.44-1.43-9.93-9.87-9.93h-72.93v71.19h-17.38v-86.89h94.04Z"/><path d="M272.47 174.22c0 11.9-1.53 23.45-4.4 34.46 33.59-15.53 56.96-49.55 56.96-88.93 0-53.99-43.93-97.92-97.92-97.92-22.18 0-42.66 7.42-59.09 19.89 59.91 14.32 104.45 68.2 104.45 132.5Z" style="fill:none"/><path d="M168.02 41.73c59.91 14.32 104.45 68.2 104.45 132.5 0 11.9-1.53 23.45-4.4 34.46-12.47 5.77-26.34 8.99-40.96 8.99-53.99 0-97.92-43.93-97.92-97.92 0-31.81 15.25-60.12 38.82-78.02h.01Zm-60.66 78.01c0-31.56 12.28-60.3 32.3-81.72-1.14-.03-2.29-.04-3.43-.04C60.99 37.99 0 98.98 0 174.22s60.99 136.23 136.23 136.23c53.21 0 99.29-30.51 121.72-74.99a119.3 119.3 0 0 1-30.84 4.03c-66.03 0-119.75-53.72-119.75-119.75Z" style="fill:url(#linear-gradient)"/><path d="M346.87 119.75C346.87 53.72 293.15 0 227.12 0c-34.47 0-65.57 14.64-87.44 38.03 9.74.24 19.22 1.51 28.35 3.69 16.43-12.48 36.91-19.89 59.09-19.89 53.99 0 97.92 43.92 97.92 97.92 0 39.38-23.37 73.4-56.96 88.93-2.44 9.36-5.85 18.33-10.12 26.79 51.13-13.64 88.91-60.35 88.91-115.72Z" style="fill:#007fff"/><path d="M227.11 217.67c-53.99 0-97.92-43.93-97.92-97.92 0-31.81 15.25-60.12 38.82-78.02-9.13-2.18-18.61-3.45-28.35-3.69-20.02 21.41-32.3 50.16-32.3 81.72 0 66.03 53.72 119.75 119.75 119.75 10.66 0 21-1.41 30.84-4.03 4.27-8.46 7.68-17.43 10.12-26.79-12.47 5.77-26.34 8.99-40.96 8.99Z" style="fill:#004080"/></svg>