<?xml version="1.0" encoding="utf-8"?>
<!-- Generator: Adobe Illustrator 26.0.3, SVG Export Plug-In . SVG Version: 6.00 Build 0)  -->
<svg version="1.1" id="Layer_1" xmlns="http://www.w3.org/2000/svg" xmlns:xlink="http://www.w3.org/1999/xlink" x="0px" y="0px"
	 viewBox="0 0 184.1 175.8" style="enable-background:new 0 0 184.1 175.8;" xml:space="preserve">
<!-- <style type="text/css">
	.st0{fill:#FFFFFF;}
	.st1{fill:#66CCFF;}
</style> -->
<path class="st0" style="fill:#FFFFFF" d="M71.5,83.7c-19.3,0-34.9-15.6-34.9-34.9C36.6,29.6,52.2,14,71.5,14c19.3,0,34.9,15.6,34.9,34.9c0,0,0,0,0,0
	C106.4,68.1,90.8,83.7,71.5,83.7z M71.5,21c-15.4,0-27.9,12.5-27.9,27.9s12.5,27.9,27.9,27.9s27.9-12.5,27.9-27.9l0,0
	C99.4,33.5,86.9,21,71.5,21z"/>
<path class="st1" style="fill: #66CCFF" d="M83.8,49.7c-1.1-2.6-2.6-4.3-4.4-5.1s-4.1-0.6-6.7,0.5l-0.3,0.1L70,39.7l0.2-0.1c1.6-0.7,2.2-0.6,2.5-0.5
	s0.8,0.5,1.4,2.1c0.5,1.3,2,1.9,3.3,1.4c0.6-0.3,1.2-0.8,1.4-1.4c0.3-0.6,0.3-1.4,0-2c-1-2.5-2.5-4.1-4.2-4.8s-3.9-0.6-6.4,0.5
	L68,35.1l-0.8-1.8c-0.6-1.1-1.9-1.6-3-1c-1,0.5-1.5,1.7-1.1,2.8l0.8,1.8l-0.2,0.1c-2.5,1-4.1,2.5-4.8,4.2s-0.6,4,0.5,6.5
	s2.5,4.1,4.2,4.8c1.8,0.7,3.9,0.5,6.4-0.5l2.7,6.2L72,58.3c-1.6,0.7-2.4,0.6-2.8,0.5s-1-0.6-1.7-2.3c-0.3-0.6-0.8-1.1-1.4-1.3
	c-0.6-0.3-1.3-0.3-1.9,0c-1.3,0.6-1.9,2-1.4,3.3c1.1,2.6,2.6,4.3,4.4,5.1s4.1,0.6,6.8-0.5l0.5-0.2l0.5,1.3c0.3,0.9,1.1,1.5,2,1.4
	c0.3,0,0.7-0.1,1-0.2l0,0c1.1-0.3,1.7-1.5,1.4-2.6c0-0.1-0.1-0.3-0.2-0.4l-0.6-1.3l0.5-0.2c2.6-1.1,4.3-2.6,5.1-4.5
	S84.8,52.3,83.8,49.7z M65.8,41.5l2.3,5.5l-0.2,0.1c-1.6,0.7-2.3,0.6-2.6,0.5s-0.8-0.4-1.4-2s-0.6-2.2-0.5-2.5s0.5-0.8,2.1-1.5
	L65.8,41.5z M74.5,49.8c1.6-0.7,2.4-0.6,2.8-0.5s0.9,0.6,1.7,2.3s0.6,2.5,0.5,2.8s-0.7,1-2.3,1.7l-0.5,0.2L74,50.1L74.5,49.8z"/>
<path class="st0" style="fill:#FFFFFF" d="M152,82.2c-1.4-2.9-5-6.1-14-5.4c-4.9,0.4-9.8,1.7-14.3,3.8c-7.5,3.8-10.9,10.7-8.9,17.4
	c-10.1,3.6-19.1,11-24.7,16.4V91.6c23.3-10.2,33.8-37.4,23.6-60.6S76.3-2.9,53.1,7.4S19.3,44.8,29.5,68c9.1,20.6,31.8,31.6,53.6,26
	v53.6c-11.7-8.4-28-5.8-36.4,5.9c-3.2,4.4-4.9,9.8-4.9,15.2v3.5h95.2v-3.5c0-26.1-15.4-31.6-28.2-31.6c-7,0-13.8,2.8-18.7,7.9v-20.5
	c3.1-3.5,15.1-16.3,28.4-20.4c2.5,2.5,6,3.8,9.5,3.8c2.9,0,5.7-0.8,8.3-2.1l0,0c4.4-2.3,8.3-5.4,11.6-9.1
	C153.9,89.9,153.4,85.1,152,82.2z M31.9,48.9C31.9,27,49.6,9.3,71.5,9.3s39.6,17.7,39.6,39.6S93.4,88.5,71.5,88.5
	C49.6,88.5,31.9,70.7,31.9,48.9z M91.3,155c2.3-4,7.7-10.8,17.5-10.8c13.4,0,20.2,6.7,21.1,21.1H49.2c1.9-10.4,11.9-17.2,22.3-15.3
	c4.1,0.8,7.9,2.9,10.7,6c1.2,1.4,3,2,4.8,1.8C88.8,157.6,90.4,156.6,91.3,155z M142.7,92.1c-2.7,3-5.9,5.6-9.4,7.5
	c-3.9,1.9-8.8,2.3-11.2-2.4c-1-1.7-1.1-3.8-0.2-5.7c1.1-2.1,2.9-3.8,5-4.7c3.7-1.7,7.6-2.7,11.6-3c0.6,0,1.2-0.1,1.8-0.1
	c2.9,0,5,0.6,5.5,1.7C146.4,86.6,145.2,89.2,142.7,92.1z"/>
<path class="st0"  style="fill:#FFFFFF"  d="M175.6,126.4c-0.2,7.4,0.6,8.6,7.5,11.2c-7.4-0.2-8.6,0.6-11.2,7.5c0.1-4.7-0.1-6.9-2.1-8.5
	c-1.1-0.9-2.8-1.7-5.4-2.7C171.8,134,172.9,133.3,175.6,126.4z"/>
<path class="st0" style="fill:#FFFFFF"  d="M3.6,121.7c1.7,3.1,2.3,3.4,5.8,2.8c-3.1,1.7-3.4,2.3-2.8,5.8c-1.1-2-1.7-2.8-3-3c-0.7-0.1-1.6,0-2.9,0.2
	C3.9,125.8,4.2,125.2,3.6,121.7z"/>
<path class="st0"  style="fill:#FFFFFF"  d="M166.6,18.8c-1.9,6.9-1.5,8.2,4.4,12.3c-6.9-1.9-8.2-1.5-12.3,4.4c1.2-4.4,1.5-6.5,0-8.5
	c-0.8-1.2-2.3-2.3-4.4-3.8C161.2,25.1,162.5,24.7,166.6,18.8z"/>
</svg>
