<svg xmlns="http://www.w3.org/2000/svg" viewBox="0 0 316.23 164.99"><path d="M258,14.31H224.26V2.23h-7V14.31h-113V2.23h-7V14.31H63.53A3.73,3.73,0,0,0,59.81,18v141a3.72,3.72,0,0,0,3.72,3.71H261.71V18A3.72,3.72,0,0,0,258,14.31Zm-160.74,7V33.4h7V21.31h113V33.4h7V21.31h30.45V44.24H66.81V21.31ZM66.81,155.77V51.24h187.9V155.77Z" style="fill:#fff"/><path d="M191,91.52a2.26,2.26,0,0,0-2.12-1.58h-.1a2.36,2.36,0,0,0-2.25,1.56l-8.06,19.86a2.09,2.09,0,0,0-.07,1.67,2.12,2.12,0,0,0,1.27,1.11,2.53,2.53,0,0,0,1,.21,1.72,1.72,0,0,0,.68-.14,2.09,2.09,0,0,0,1.11-1.24l1.57-4h9.6l1.65,4a2,2,0,0,0,2.78,1.17,2,2,0,0,0,1.24-1.1,2.13,2.13,0,0,0-.07-1.69Zm.84,13.19h-6.18l3-7.67Z" style="fill:#6cf"/><path d="M211.61,89.94h-7.93a2,2,0,0,0-2.13,2.13V112.2a2.13,2.13,0,0,0,4.26,0v-7h5.8a6.47,6.47,0,0,0,7.11-7.11v-1a6.47,6.47,0,0,0-7.11-7.11Zm2.85,7.11v1a3.21,3.21,0,0,1-.61,2.24,3.18,3.18,0,0,1-2.24.61h-5.8V94.2h5.8a2.34,2.34,0,0,1,2.85,2.85Z" style="fill:#6cf"/><path d="M240.23,91.71a2.06,2.06,0,0,0-1-1.3,2,2,0,0,0-1.63-.41,2,2,0,0,0-1.31,1l-6.51,10L223.58,91a2,2,0,0,0-3-.65,2,2,0,0,0-.64,3l7.65,12.2v6.71a2.13,2.13,0,0,0,4.26,0v-6.71l7.94-12.18A2.06,2.06,0,0,0,240.23,91.71Z" style="fill:#6cf"/><path d="M104.45,83.9H78.82V58.28h25.63Zm-18.63-7H97.45V65.28H85.82Z" style="fill:#fff"/><path d="M138,83.9H112.4V58.28H138Zm-18.63-7H131V65.28H119.4Z" style="fill:#fff"/><path d="M171.61,83.9H146V58.28h25.62ZM153,76.9h11.62V65.28H153Z" style="fill:#fff"/><path d="M104.45,117H78.82V91.35h25.63Zm-18.63-7H97.45V98.35H85.82Z" style="fill:#fff"/><path d="M138,117H112.4V91.35H138Zm-18.63-7H131V98.35H119.4Z" style="fill:#fff"/><path d="M104.45,150H78.82V124.42h25.63Zm-18.63-7H97.45V131.42H85.82Z" style="fill:#fff"/><path d="M138,150H112.4V124.42H138Zm-18.63-7H131V131.42H119.4Z" style="fill:#fff"/><path d="M171.61,150H146V124.42h25.62ZM153,143h11.62V131.42H153Z" style="fill:#fff"/><path d="M286.85,59.64c.53,7.38-.2,8.59-7,11.52,3.54-.25,5.66-.22,7.23.64s2.77,2.82,4.29,6.36c-.53-7.39.2-8.6,7-11.53C291,67.17,289.78,66.43,286.85,59.64Z" style="fill:#fff"/><path d="M304,29.13c-1.45,8.55-2.62,9.72-11.17,11.17,4.07.69,6.47,1.31,8,2.71,1.71,1.53,2.39,4,3.15,8.46,1.44-8.55,2.62-9.73,11.16-11.17C306.58,38.85,305.4,37.68,304,29.13Z" style="fill:#fff"/><path d="M18.9,135.12c-7.25,1.46-8.55.88-12.32-5.48,1.47,7.25.89,8.54-5.48,12.31,3.32-.66,5.39-.91,7-.37,2,.64,3.26,2.39,5.31,5.85C12,140.18,12.53,138.89,18.9,135.12Z" style="fill:#fff"/></svg>