<svg version="1.1" id="Layer_1" xmlns="http://www.w3.org/2000/svg" xmlns:xlink="http://www.w3.org/1999/xlink" x="0px" y="0px" style="enable-background:new 0 0 287.3 178.6;" xml:space="preserve" viewBox="1.2 26.89 242.4 150.71"> <!-- <style type="text/css"> 	.st0{fill:#FFFFFF;} 	.st1{fill:#66CCFF;stroke:#66CCFF;stroke-width:1.7611;stroke-miterlimit:10;} </style> --> <path class="st0" style="fill: #FFFFFF" d="M138.2,91.3c1,1.3,2,2.4,2.9,3.6c2.7,3.7,5,7.6,5.7,12.2c0.3,2.1-0.1,4.3-1.2,6.2c-1.1,2.1-2.2,4.2-3.4,6.3 	c3.8,0.5,7.5,0.9,11.1,1.5c7.6,1.3,15.1,3.1,21.9,7.1c2.3,1.5,4.4,3.2,6.3,5.2c1.7,1.9,2.6,4.4,2.5,6.9c0,5-0.2,10,0,14.9 	c0.2,4.6-1.8,8-5.2,10.8c-4.3,3.5-9.4,5.5-14.7,7c-8.7,2.4-17.6,3.9-26.6,4.3c-9.4,0.6-18.8,0.3-28.1-0.8c-9.1-1.1-18.1-2.9-26.5-7 	c-2.9-1.3-5.5-3.2-7.7-5.6c-2-2.2-3.1-5.1-3-8.1c0.1-4.9,0.1-9.9,0-14.8c-0.3-4.4,1.9-8.6,5.7-10.9c3.4-2.1,7.1-3.7,10.7-5.5 	c0.3-0.2,0.7-0.2,1.2-0.5c-1-0.4-1.8-0.8-2.5-1.2c-13.2-6.8-25.7-14.4-36.2-25c-4.1-4.2-8-8.5-10.4-13.9c-1.4-3-2.3-6.2-1.5-9.5 	c0.3-1.1,0.7-2.1,1.2-3.1c2.4-4.3,5.1-8.5,7.4-12.8c2.1-3.9,5.3-5.7,9.5-6.5c6.4-1.1,12.7-0.1,18.8,1.8c3.9,1.2,7.8,2.5,11.7,3.8 	c6.3-9.2,15.8-14,25.5-18.4c13.1-5.9,27.1-9.7,41.4-11.4c5.9-0.7,11.9-1,17.8-1c5.5-0.1,10.9,1.2,15.8,3.7c3.2,1.6,5.5,4.5,6.3,8 	c1.2,4.6,2.4,9.3,3.8,13.8c1.1,3.4,0.5,7.2-1.5,10.1c-2.6,4-6.1,7.4-10.1,10c-9.1,6.3-19.1,10.6-29.6,13.7c-5.9,1.8-12,3.1-18.1,4.7 	C138.8,91.1,138.5,91.2,138.2,91.3z M114.1,70.4c1.6-0.1,4.8-0.3,8-0.6c10.8-1,21.2-3.8,31.5-7.2c9.5-2.9,18.5-7.4,26.7-13.1 	c2.6-1.9,5.1-3.8,6.6-6.7c1.4-2.6,0.9-4.7-1.8-5.9c-2.2-1-4.5-1.7-6.9-2.2c-7.2-1.1-14.6-1.1-21.8-0.1c-15.5,1.9-30.6,6.3-44.7,13.1 	c-5.4,2.4-10.3,5.7-14.7,9.6c-1.2,1.2-2.3,2.5-3.2,3.9c-1.6,2.5-1,4.7,1.7,6.2c1,0.5,2,0.9,3,1.2C103,70,107.8,70.4,114.1,70.4 	L114.1,70.4z M131.1,154c3.4-0.2,9.7-0.5,16-1.2c6.6-0.6,13.1-2.1,19.3-4.5c3.1-1,6-2.6,8.6-4.7c2.9-2.5,3-4.8-0.1-7.1 	c-2.6-2-5.4-3.6-8.5-4.9c-8.8-3.4-18-4.6-27.3-5.4c-0.6-0.1-1.2,0.2-1.4,0.8c0,0,0,0,0,0.1c-0.8,2.1-2.4,3.9-4.5,4.8 	c-2.5,1.2-5.3,1.9-8.1,1.8c-8.2,0.1-16.1-1.8-23.7-4.7c-0.6-0.3-1.2-0.4-1.8-0.3c-4.8,1-9.4,2.6-13.8,4.8c-1.8,0.9-3.4,1.9-5,3.1 	c-2.4,2-2.5,4.3-0.2,6.4c1,1,2.1,1.9,3.3,2.5c3.7,1.8,7.5,3.3,11.4,4.5C106.1,153.2,117.1,153.8,131.1,154L131.1,154z M131.6,112.9 	c1.9-0.2,3.7-0.6,5.5-1.1c1.9-0.4,3-2.3,2.6-4.2c0-0.1-0.1-0.3-0.1-0.4c-0.4-1.8-1.1-3.6-2.1-5.2c-2-2.9-4.3-5.5-6.4-8.2 	c-0.8-1.1-2.1-1.5-3.4-1.2c-5.8,0.8-11.6,1-17.4,0.5c-4.8-0.5-9.5-1.4-13.8-3.7c-2.8-1.5-5.2-3.5-6.1-6.6c-1.6-5.7-3-11.4-4.4-17.2 	c-0.2-0.7-0.4-1.1-1.1-1.3c-5-1.5-9.9-3.2-14.9-4.4c-4-1-8.1-1.3-12.1-0.7c-3.2,0.5-4.4,2.4-3.4,5.5c0.4,1.6,1.2,3.1,2.1,4.4 	c2.8,3.9,5.9,7.5,9.2,11c7.4,7.2,15.9,13.3,25.1,18c6.1,3.2,12.3,6.3,18.6,9C116.4,110.3,123.9,112.3,131.6,112.9L131.6,112.9z 	 M93.7,118.8c4.4,1.6,8.5,3.2,12.7,4.7c0.3,0.1,0.6,0,0.9-0.2c1.5-2.5,3-5,4.6-7.6l-13.3-5.6L93.7,118.8z M141.3,83.5l13.7-3.6 	c-0.8-3.2-1.6-6.3-2.4-9.4l-13.7,3.6L141.3,83.5z M172.3,62.8c-4.2,1.7-8.4,3.4-12.5,5.2c-0.3,0.1-0.7,0.7-0.6,0.9 	c0.7,2.8,1.5,5.7,2.2,8.7l13.3-5.6C173.8,68.8,173,65.8,172.3,62.8L172.3,62.8z M92.6,107.4l-12-7.3c-1.6,2.8-3.2,5.5-4.9,8.5 	l12.2,7.1L92.6,107.4z M99.9,168.1l13.9,2v-9.6l-13.9-2V168.1z M156.1,158.5l-13.9,2v9.6l13.9-2V158.5z M132,75.6l-14,1.6 	c0.8,3.1,1.6,6.1,2.4,9.2l14.1-1.6L132,75.6z M69.6,104.6l4.9-8.2l-11.2-8.8l-4.5,8.2L69.6,104.6z M121.2,161v9.4 	c4.5,0.5,9,0.5,13.5,0V161L121.2,161z M79,150.8c0,2,0,3.7,0,5.4c0,1.3,0.5,2.6,1.4,3.5c3.5,3.4,8,4.7,12.7,6.2c0-2.8,0-5.3,0-7.9 	c0.1-0.8-0.4-1.6-1.2-1.8c-3.4-1.2-6.8-2.6-10.2-4C80.7,151.8,79.8,151.3,79,150.8z M49.3,70.3c-0.9,1.5-1.6,2.7-2.4,3.8 	c-1.6,1.9-1.8,4.6-0.4,6.7c1.7,2.8,3.6,5.4,5.4,8.1c0.5,0.7,1.1,1.4,1.7,2c1.3-2.4,2.5-4.7,3.8-6.8c0.5-0.7,0.5-1.7-0.2-2.4 	C54.5,78,50.9,75,49.3,70.3z M113.1,86.5c-0.8-3-1.5-5.8-2.3-8.6c-0.1-0.3-0.7-0.7-1.2-0.7c-2-0.2-4-0.2-6-0.5 	c-2.7-0.3-5.4-0.9-8.2-1.3c0.4,1.5,1,3,1.3,4.6c0.3,1.6,1.4,3,2.9,3.6C103.9,85.7,108.4,86,113.1,86.5z M163,165.9 	c4.4-1.3,8.5-2.6,11.8-5.4c1-0.8,1.8-2,2.1-3.3c0.2-2,0.2-4.1,0.1-6.1c-2.9,1.2-5.7,2.5-8.6,3.7c-1.5,0.6-3,1-4.5,1.6 	c-0.4,0.1-0.9,0.6-0.9,0.9C162.9,160.1,163,162.9,163,165.9z M180.8,68.7c3-2.5,5.9-4.6,8.5-7.1c3.4-3.4,3.6-7.2,0.9-11.5 	c-3.3,3.7-7.4,6.8-11.9,9L180.8,68.7z M134.1,119.4c-1.9,0.1-3.8,0.1-5.7,0c-2.6-0.3-5.3-0.9-7.9-1.3c-0.6-0.1-1.7-0.1-1.9,0.2 	c-1.5,2.4-2.8,4.9-4.3,7.7c3.9,0.4,7.5,0.8,11.1,1c2,0.1,4.1-0.2,5.4-1.9C132,123.3,133.1,121.4,134.1,119.4L134.1,119.4z"></path> <path class="st1" style="fill:#66CCFF;stroke:#66CCFF;stroke-width:1.7611;stroke-miterlimit:10" d="M192.2,108.2c1.8,0.1,3.6-0.5,5-1.7c1.2-1.4,1.8-3.2,1.6-5.1v-3.5c0.5-3.2-1.7-6.2-4.9-6.6 	c-0.6-0.1-1.1-0.1-1.7,0h-0.8c-3.2-0.5-6.2,1.7-6.6,4.9c-0.1,0.6-0.1,1.1,0,1.7v3.6c-0.1,1.8,0.4,3.6,1.6,5c1.4,1.2,3.2,1.8,5,1.7 	L192.2,108.2z M188.1,101.5v-3.6c-0.1-0.9,0.1-1.9,0.7-2.6c0.8-0.5,1.7-0.8,2.6-0.7h0.8c0.9-0.1,1.9,0.1,2.6,0.7 	c0.5,0.8,0.8,1.7,0.7,2.6v3.6c0.4,1.4-0.3,2.9-1.8,3.4c-0.5,0.2-1.1,0.2-1.6,0h-0.8c-0.9,0.1-1.9-0.1-2.6-0.7 	C188.2,103.4,188,102.5,188.1,101.5z"></path> <path class="st1" style="fill:#66CCFF;stroke:#66CCFF;stroke-width:1.7611;stroke-miterlimit:10" d="M217.5,108c-1.4-1.2-3.2-1.8-5-1.6h-0.8c-1.8-0.1-3.6,0.4-5,1.6c-1.1,1.1-1.6,2.7-1.6,5v3.6 	c-0.5,3.2,1.7,6.2,4.9,6.6c0.6,0.1,1.2,0.1,1.8,0h0.8c1.8,0.1,3.6-0.4,5-1.7c1.2-1.4,1.8-3.2,1.6-5V113 	C219.3,111.2,218.7,109.4,217.5,108z M215.8,116.6c0.1,0.9-0.1,1.9-0.7,2.7c-0.8,0.6-1.7,0.8-2.6,0.7h-0.8c-1.4,0.4-2.9-0.4-3.3-1.8 	c-0.1-0.5-0.1-1,0-1.5V113c-0.1-0.9,0.1-1.9,0.7-2.7c0.8-0.5,1.7-0.8,2.6-0.7h0.8c1.4-0.4,2.9,0.4,3.3,1.8c0.1,0.5,0.1,1,0,1.5 	V116.6z"></path> <path class="st1" style="fill:#66CCFF;stroke:#66CCFF;stroke-width:1.7611;stroke-miterlimit:10" d="M214.6,93.5c0.1-0.2,0.1-0.4,0.1-0.6c0-1-0.8-1.8-1.8-1.8c0,0,0,0,0,0c-0.6,0-1.1,0.3-1.4,0.7l-22.1,29.3 	c-0.1,0.2-0.2,0.3-0.2,0.5c-0.1,0.2-0.1,0.4-0.1,0.6c0,0.5,0.2,0.9,0.5,1.2c0.3,0.3,0.8,0.5,1.2,0.5c0.6,0,1.1-0.3,1.4-0.7L214.3,94 	C214.5,93.8,214.5,93.7,214.6,93.5z"></path> <path class="st0" style="fill: #FFFFFF" d="M26.5,126.5c1.9,2.6,3.1,4.1,4.7,4.6c1.5,0.5,3.4,0.2,6.5-0.7c-5.3,3.8-5.7,5-3.9,11.2c-3.8-5.3-5-5.7-11.2-3.9 	C27.9,133.9,28.3,132.7,26.5,126.5z"></path> <path class="st0" style="fill: #FFFFFF" d="M3.1,162.1c0.5,0.9,1.3,1.7,2.2,2.2c0.8,0.4,1.8,0.2,3.4-0.3c-2.6,1.9-2.8,2.5-1.9,5.6 	c-1.9-2.6-2.5-2.9-5.6-1.9C3.8,165.8,4,165.2,3.1,162.1z"></path> <path class="st0" style="fill: #FFFFFF" d="M235.2,40.8c-1.1,6.4-2,7.3-8.4,8.4c2.9,0.5,4.7,1,5.9,1.9c1.4,1.1,1.9,3,2.5,6.5c1.1-6.4,2-7.3,8.4-8.4 	C237.2,48.1,236.3,47.2,235.2,40.8z"></path> </svg>